<svg xmlns="http://www.w3.org/2000/svg" viewBox="0 0 600 523" preserveAspectRatio="xMidYMid meet" focusable="false" aria-hidden="true">
  <g transform="translate(0,523) scale(0.1,-0.1)" fill="currentColor" stroke="none">
    <path d="M3354 4619 c-57 -16 -125 -72 -156 -127 -59 -104 -45 -232 34 -318 58 -63 116 -87 208 -86 l76 1 72 -132 72 -131 -33 -35 c-47 -51 -65 -82 -82 -148 -24 -88 -3 -199 49 -268 l24 -32 -150 -189 c-82 -104 -153 -193 -158 -198 -5 -5 -34 2 -70 18 -159 68 -325 53 -466 -45 l-46 -31 -51 48 c-28 27 -54 51 -57 54 -7 8 -237 217 -293 268 l-48 43 22 60 c52 143 -11 298 -151 371 -62 32 -184 33 -252 1 -56 -26 -118 -87 -143 -142 -10 -22 -21 -38 -25 -36 -4 3 -54 11 -111 19 -57 8 -159 22 -227 32 l-122 17 -21 46 c-39 88 -89 121 -185 121 -110 0 -185 -72 -192 -184 -3 -50 1 -69 20 -106 68 -127 251 -139 336 -22 27 38 27 38 77 29 28 -5 133 -21 235 -35 l184 -27 8 -44 c31 -182 247 -290 414 -206 l59 30 30 -30 c17 -17 116 -109 220 -205 105 -95 191 -177 193 -181 2 -5 -8 -27 -22 -51 -49 -86 -64 -180 -53 -342 2 -26 -3 -31 -48 -49 -27 -11 -131 -54 -230 -95 -99 -41 -247 -103 -330 -137 -82 -34 -217 -90 -298 -125 l-149 -62 -41 42 c-120 122 -294 122 -418 0 -116 -115 -121 -286 -11 -411 81 -92 232 -121 344 -66 108 53 168 150 168 273 l0 62 83 33 c63 25 917 381 974 405 6 3 19 -8 27 -25 39 -74 147 -158 247 -190 l36 -11 -13 -88 c-7 -48 -24 -174 -38 -281 -15 -113 -30 -197 -37 -202 -6 -4 -29 -10 -49 -13 -80 -13 -188 -113 -210 -197 -6 -22 -10 -69 -8 -106 l3 -67 -100 -50 c-96 -49 -101 -51 -120 -34 -34 28 -92 48 -142 48 -130 -1 -226 -141 -179 -263 29 -76 83 -119 167 -132 107 -16 218 84 220 197 l0 43 101 48 101 48 42 -41 c45 -44 125 -80 179 -80 24 0 36 -5 40 -17 2 -10 21 -87 41 -171 l37 -153 -25 -19 c-85 -67 -97 -210 -24 -288 75 -81 215 -83 289 -5 104 109 57 286 -87 328 l-50 15 -39 167 -40 166 25 16 c31 20 93 81 105 103 11 20 -4 24 321 -76 100 -31 188 -56 196 -56 9 0 17 -14 20 -38 24 -146 191 -219 309 -136 115 81 116 248 2 327 -77 54 -172 46 -245 -20 l-38 -35 -261 78 -260 79 0 36 c0 100 -60 202 -147 251 -55 31 -55 31 -50 72 4 23 21 150 39 282 l32 242 59 7 c117 13 243 77 313 159 19 22 51 73 71 113 34 68 36 71 63 63 15 -4 110 -22 211 -40 225 -38 229 -40 229 -82 1 -78 74 -178 165 -226 40 -21 64 -26 120 -26 86 0 131 14 194 64 73 58 106 131 106 235 0 67 -5 88 -27 131 -87 165 -286 214 -440 107 -35 -23 -89 -91 -100 -125 -2 -5 -106 10 -232 32 -127 22 -231 40 -232 40 0 0 -4 29 -8 64 -11 110 -49 202 -117 287 l-21 26 158 197 c119 150 161 195 173 190 95 -39 195 -40 283 -2 58 25 141 110 169 175 30 66 30 179 1 251 l-21 54 32 27 c18 16 94 82 171 148 l138 121 52 -24 c69 -32 153 -32 221 0 170 80 201 311 59 436 -54 47 -99 63 -174 63 -102 0 -175 -43 -226 -129 -34 -58 -43 -153 -21 -218 l16 -46 -101 -87 c-56 -49 -133 -115 -171 -149 l-70 -61 -68 35 c-71 37 -137 45 -219 29 l-35 -7 -70 127 c-38 69 -71 130 -73 134 -2 5 8 21 22 36 42 45 60 93 64 169 7 118 -45 204 -153 255 -63 30 -128 36 -191 18z m146 -121 c65 -34 85 -67 85 -141 0 -73 -24 -115 -82 -142 -81 -38 -170 -11 -211 66 -45 84 -13 181 72 220 54 24 83 24 136 -3z m1228 -118 c45 -28 72 -76 72 -130 0 -157 -211 -209 -283 -70 -23 44 -18 120 10 158 43 60 139 80 201 42z m-815 -599 c140 -33 212 -190 146 -318 -81 -156 -313 -154 -389 3 -47 97 -19 215 66 276 59 43 111 54 177 39z m-2787 -115 c60 -51 21 -146 -58 -146 -52 0 -88 35 -88 85 0 76 87 112 146 61z m966 -21 c38 -15 94 -73 109 -112 35 -93 -30 -215 -129 -243 -55 -15 -73 -13 -130 16 -108 54 -138 184 -65 282 48 65 140 89 215 57z m1068 -757 c50 -15 135 -74 169 -116 152 -194 95 -462 -121 -570 -182 -92 -396 -18 -495 170 -26 48 -28 62 -28 158 0 95 3 111 28 162 83 168 269 250 447 196z m1178 -403 c105 -44 149 -154 101 -252 -30 -62 -78 -95 -144 -101 -71 -6 -97 2 -140 40 -47 40 -66 78 -67 132 -1 89 41 154 118 181 51 19 87 18 132 0z m-2991 -526 c80 -39 117 -118 99 -214 -8 -41 -55 -99 -99 -122 -42 -21 -129 -19 -169 4 -108 63 -131 209 -45 294 61 62 138 75 214 38z m1628 -613 c110 -84 93 -256 -30 -316 -128 -62 -265 25 -265 168 0 60 15 95 57 133 47 44 65 50 134 47 55 -3 73 -8 104 -32z m936 -385 c20 -20 29 -39 29 -61 0 -22 -9 -41 -29 -61 -47 -46 -106 -37 -137 22 -46 90 65 172 137 100z m-1627 -22 c44 -51 31 -110 -30 -135 -49 -20 -97 1 -113 49 -31 94 80 161 143 86z m811 -471 c29 -13 55 -55 55 -88 0 -35 -53 -80 -92 -80 -90 0 -116 130 -34 166 39 17 39 17 71 2z" />
  </g>
</svg>
