<svg fill="currentColor" version="1.1" viewBox="144 144 512 512" xmlns="http://www.w3.org/2000/svg" focusable="false" aria-hidden="true">
  <path d="m379.01 379.01c46.371 0 83.969-37.594 83.969-83.969s-37.598-83.969-83.969-83.969c-46.375 0-83.969 37.594-83.969 83.969s37.594 83.969 83.969 83.969zm125.95 83.969c34.781 0 62.977 28.195 62.977 62.973 0 34.781-28.195 62.977-62.977 62.977-34.777 0-62.973-28.195-62.973-62.977 0-34.777 28.195-62.973 62.973-62.973zm0 20.988c-5.1523 0-9.4375 3.7148-10.324 8.6094l-0.17187 1.8867v20.992h-20.988c-5.7969 0-10.496 4.6992-10.496 10.496 0 5.1562 3.7109 9.4414 8.6094 10.328l1.8867 0.16797h20.988v20.992c0 5.7969 4.6992 10.496 10.496 10.496 5.1562 0 9.4414-3.7109 10.328-8.6094l0.16797-1.8867v-20.992h20.992c5.7969 0 10.496-4.6992 10.496-10.496 0-5.1523-3.7109-9.4375-8.6094-10.324l-1.8867-0.17188-20.992-0.019531v-20.973c0-5.7969-4.6992-10.496-10.496-10.496zm-125.95-83.965c41.32 0 78.66 17.055 105.36 44.512-36.426 9.2031-63.375 42.176-63.375 81.438 0 7.2578 0.91797 14.297 2.6484 21.008l-191.58-0.015625c0-81.152 65.789-146.94 146.95-146.94z" fill-rule="evenodd" />
</svg>
